<?xml version="1.0" standalone="no"?>
<!DOCTYPE svg PUBLIC "-//W3C//DTD SVG 20010904//EN"
 "http://www.w3.org/TR/2001/REC-SVG-20010904/DTD/svg10.dtd">
<svg version="1.0" xmlns="http://www.w3.org/2000/svg"
 width="220.000000pt" height="263.000000pt" viewBox="0 0 220.000000 263.000000"
 preserveAspectRatio="xMidYMid meet">
<metadata>
Created by potrace 1.16, written by Peter Selinger 2001-2019
</metadata>
<g transform="translate(0.000000,263.000000) scale(0.100000,-0.100000)"
fill="#000000" stroke="none">
<path d="M455 2508 c-3 -7 -6 -233 -7 -503 l-3 -490 -135 -5 -135 -5 -3 -679
c-1 -493 1 -683 9 -692 9 -11 53 -14 203 -14 105 0 197 4 203 8 9 6 13 77 15
277 3 263 4 270 23 269 11 -1 228 -2 483 -2 l462 -2 0 -269 c0 -236 2 -270 16
-275 9 -3 100 -6 204 -6 146 0 190 3 199 14 8 9 10 199 9 692 l-3 679 -135 5
-135 5 -3 485 c-1 267 -2 493 -2 503 0 16 -37 17 -630 17 -495 0 -632 -3 -635
-12z m195 -833 l0 -795 -25 0 -25 0 -2 313 -3 312 -47 3 -48 3 0 480 0 479 75
0 75 0 0 -795z m208 3 l-3 -793 -75 0 -75 0 -3 793 -2 792 80 0 80 0 -2 -792z
m202 -3 l0 -795 -75 0 -75 0 0 795 0 795 75 0 75 0 0 -795z m205 0 l0 -790
-77 -3 -78 -3 0 796 0 796 78 -3 77 -3 0 -790z m205 0 l0 -795 -75 0 -75 0 0
795 0 795 75 0 75 0 0 -795z m200 316 l0 -480 -47 -3 -48 -3 -3 -312 -2 -313
-25 0 -25 0 0 795 0 795 75 0 75 0 0 -479z m-1120 -1171 l0 -640 -165 0 -165
0 0 640 0 640 165 0 165 0 0 -640z m1398 -2 l2 -638 -24 -6 c-14 -3 -87 -4
-163 -2 l-138 3 -3 643 -2 642 162 -2 163 -3 3 -637z m-380 -41 l3 -47 -483 2
-483 3 -3 33 c-7 66 -40 62 485 60 l478 -3 3 -48z"/>
</g>
</svg>
